HIERARCHY
ROOT hip
{
	OFFSET 0.000000 0.000000 0.000000
	CHANNELS 6 Xposition Yposition Zposition Xrotation Zrotation Yrotation 
	JOINT abdomen
	{
		OFFSET 0.000000 3.422050 0.000000
		CHANNELS 3 Xrotation Zrotation Yrotation 
		JOINT chest
		{
			OFFSET 0.000000 8.486693 -0.684411
			CHANNELS 3 Xrotation Zrotation Yrotation 
			JOINT neck
			{
				OFFSET 0.000000 10.266162 -0.273764
				CHANNELS 3 Xrotation Zrotation Yrotation 
				JOINT head
				{
					OFFSET 0.000000 3.148285 0.000000
					CHANNELS 3 Xrotation Zrotation Yrotation 
					End Site
					{
						OFFSET 0.000000 3.148289 0.000000
					}
				}
			}
			JOINT lCollar
			{
				OFFSET 3.422053 6.707223 -0.821293
				CHANNELS 3 Yrotation Zrotation Xrotation 
				JOINT lShldr
				{
					OFFSET 3.285171 0.000000 0.000000
					CHANNELS 3 Zrotation Yrotation Xrotation 
					JOINT lForeArm
					{
						OFFSET 10.129278 0.000000 0.000000
						CHANNELS 3 Yrotation Zrotation Xrotation 
						JOINT lHand
						{
							OFFSET 8.486692 0.000000 0.000000
							CHANNELS 3 Zrotation Yrotation Xrotation 
							End Site
							{
								OFFSET 4.106464 0.000000 0.000000
							}
						}
					}
				}
			}
			JOINT rCollar
			{
				OFFSET -3.558935 6.707223 -0.821293
				CHANNELS 3 Yrotation Zrotation Xrotation 
				JOINT rShldr
				{
					OFFSET -3.148289 0.000000 0.000000
					CHANNELS 3 Zrotation Yrotation Xrotation 
					JOINT rForeArm
					{
						OFFSET -10.266159 0.000000 0.000000
						CHANNELS 3 Yrotation Zrotation Xrotation 
						JOINT rHand
						{
							OFFSET -8.349810 0.000000 0.000000
							CHANNELS 3 Zrotation Yrotation Xrotation 
							End Site
							{
								OFFSET -4.106464 0.000000 0.000000
							}
						}
					}
				}
			}
		}
	}
	JOINT lThigh
	{
		OFFSET 5.338403 -1.642589 1.368821
		CHANNELS 3 Xrotation Zrotation Yrotation 
		JOINT lShin
		{
			OFFSET -2.053232 -20.121670 0.000000
			CHANNELS 3 Xrotation Zrotation Yrotation 
			JOINT lFoot
			{
				OFFSET 0.000000 -19.300380 -1.231939
				CHANNELS 3 Xrotation Yrotation Zrotation 
				End Site
				{
					OFFSET 0.000000 -2.463878 4.653993
				}
			}
		}
	}
	JOINT rThigh
	{
		OFFSET -5.338403 -1.642589 1.368821
		CHANNELS 3 Xrotation Zrotation Yrotation 
		JOINT rShin
		{
			OFFSET 2.053232 -20.121670 0.000000
			CHANNELS 3 Xrotation Zrotation Yrotation 
			JOINT rFoot
			{
				OFFSET 0.000000 -19.300380 -1.231939
				CHANNELS 3 Xrotation Yrotation Zrotation 
				End Site
				{
					OFFSET 0.000000 -2.463878 4.653993
				}
			}
		}
	}
}
MOTION
Frames: 15
Frame Time: 0.049868
0.000000 43.528500 0.000000 0.000000 0.000000 0.000000 0.000000 0.000000 0.000000 0.000000 0.000000 0.000000 0.000000 0.000000 0.000000 0.000000 0.000000 0.000000 0.000000 0.000000 0.000000 0.000000 0.000000 0.000000 0.000000 0.000000 0.000000 0.000000 0.000000 0.000000 0.000000 0.000000 0.000000 0.000000 0.000000 0.000000 0.000000 0.000000 0.000000 0.000000 0.000000 0.000000 0.000000 0.000000 0.000000 0.000000 0.000000 0.000000 0.000000 0.000000 0.000000 0.000000 0.000000 0.000000 0.000000 0.000000 0.000000 0.000000 0.000000 0.000000 
-14.132582 21.742380 26.766300 0.007525 0.013024 168.958237 1.432853 0.964341 0.496470 15.218746 1.646927 -1.274336 9.988152 0.000000 0.000000 -37.004505 0.000000 0.000000 -40.335281 -6.818120 -35.483414 -72.124496 18.455387 30.209650 -19.803972 2.912507 25.418152 -22.859119 -22.089016 4.841050 -38.510601 25.100847 -51.099213 1.537963 34.986122 15.091342 95.565559 -42.473396 25.007799 9.130919 -4.590976 -27.256416 -14.727201 7.231697 -2.612305 107.780014 6.411049 1.347237 60.393066 4.198781 5.899989 -16.788069 -5.837456 -0.721861 106.993019 -6.255647 -0.457184 59.708797 -8.759098 -4.566446 
-14.123570 21.684307 26.985575 0.007525 0.013024 168.958237 1.429168 0.973684 0.492829 15.456654 1.589192 -1.254980 10.433201 -0.892802 -0.006841 -37.004524 -0.000135 -1.161297 -39.641724 -5.503599 -35.356171 -72.863518 18.924946 30.072880 -21.517923 2.561684 25.512403 -23.260002 -21.323368 4.474165 -36.548294 24.368855 -51.521767 2.069544 35.535179 15.446463 95.425652 -42.037601 25.039988 8.355240 -3.650686 -26.589930 -15.406083 7.338118 -2.773340 108.341515 6.457123 1.405961 60.393066 4.198781 5.899989 -17.464020 -5.707495 -0.789167 107.571617 -6.296130 -0.518581 59.708790 -8.759097 -4.566447 
-14.114559 21.626236 27.204847 0.007525 0.013024 168.958237 1.425488 0.983030 0.489189 15.694572 1.531367 -1.235860 10.879059 -1.786612 -0.020643 -37.004562 -0.000270 -2.324520 -38.950562 -4.184054 -35.244858 -73.606499 19.393208 29.929190 -23.237373 2.206854 25.596390 -23.664566 -20.559210 4.102985 -34.593754 23.620554 -51.916115 2.609331 36.081825 15.810551 95.286308 -41.601746 25.073381 7.589534 -2.699366 -25.935375 -16.085815 7.442698 -2.935767 108.903336 6.502642 1.465165 60.393066 4.198781 5.899989 -18.140375 -5.578256 -0.858036 108.150543 -6.336009 -0.580416 59.708805 -8.759099 -4.566446 
-14.105549 21.568163 27.424122 0.007525 0.013024 168.958237 1.421805 0.992375 0.485547 15.932496 1.473454 -1.216978 11.325888 -2.681245 -0.041442 -37.004589 -0.000407 -3.489434 -38.261299 -2.860107 -35.149429 -74.353447 19.860022 29.778515 -24.961649 1.848472 25.669893 -24.072840 -19.796717 3.727489 -32.647667 22.857201 -52.281818 3.157520 36.625942 16.183798 95.147537 -41.165855 25.107973 6.833745 -1.737528 -25.292751 -16.766346 7.545406 -3.099554 109.465446 6.547596 1.524841 60.393066 4.198781 5.899989 -18.817087 -5.449768 -0.928454 108.729767 -6.375279 -0.642679 59.708797 -8.759098 -4.566446 
-14.096538 21.510090 27.643394 0.007525 0.013024 168.958237 1.418121 1.001719 0.481905 16.170439 1.415455 -1.198336 11.773829 -3.576507 -0.069276 -37.004612 -0.000544 -4.655800 -37.573460 -1.532389 -35.069889 -75.104454 20.325254 29.620810 -26.690094 1.487004 25.732727 -24.484859 -19.036070 3.347661 -30.710600 22.080063 -52.618481 3.714311 37.167374 16.566399 95.009315 -40.729946 25.143745 6.087791 -0.765683 -24.662022 -17.447624 7.646225 -3.264672 110.027824 6.591980 1.584982 60.393066 4.198781 5.899990 -19.494127 -5.322061 -1.000410 109.309235 -6.413934 -0.705363 59.708797 -8.759098 -4.566445 
-14.087526 21.452017 27.862669 0.007525 0.013024 168.958237 1.414437 1.011063 0.478263 16.408384 1.357371 -1.179932 12.223046 -4.472210 -0.104190 -37.004631 -0.000681 -5.823380 -36.886520 -0.201530 -35.006218 -75.859512 20.788748 29.456011 -28.422020 1.122935 25.784725 -24.900671 -18.277466 2.963487 -28.783087 21.290461 -52.925812 4.279904 37.705982 16.958551 94.871582 -40.294010 25.180655 5.351593 0.215645 -24.043175 -18.129604 7.745126 -3.431087 110.590416 6.635785 1.645577 60.393066 4.198781 5.899989 -20.171432 -5.195160 -1.073888 109.888947 -6.451965 -0.768458 59.708797 -8.759099 -4.566448 
-14.078515 21.393946 28.081944 0.007525 0.013024 168.958237 1.410752 1.020407 0.474619 16.646339 1.299204 -1.161767 12.673692 -5.368160 -0.146232 -37.004646 -0.000819 -6.991933 -36.199986 1.131823 -34.958443 -76.618683 21.250372 29.284096 -30.156775 0.756759 25.825762 -25.320278 -17.521063 2.574947 -26.865622 20.489769 -53.203667 4.854505 38.241627 17.360455 94.734375 -39.858112 25.218712 4.625050 1.205932 -23.436165 -18.812227 7.842083 -3.598767 111.153214 6.679003 1.706620 60.393066 4.198781 5.899989 -20.848974 -5.069097 -1.148876 110.468872 -6.489370 -0.831955 59.708797 -8.759098 -4.566446 
-14.069504 21.335873 28.301216 0.007525 0.013024 168.958237 1.407066 1.029750 0.470975 16.884295 1.240955 -1.143843 13.125926 -6.264164 -0.195451 -37.004654 -0.000958 -8.161212 -35.513359 2.467030 -34.926601 -77.381996 21.709972 29.105001 -31.893648 0.388980 25.855730 -25.743734 -16.767061 2.182028 -24.958635 19.679371 -53.451920 5.438321 38.774166 17.772312 94.597618 -39.422226 25.257874 3.908057 2.204649 -22.840950 -19.495438 7.937074 -3.767675 111.716187 6.721632 1.768101 60.393066 4.198781 5.899989 -21.526697 -4.943898 -1.225357 111.048973 -6.526139 -0.895844 59.708797 -8.759098 -4.566446 
-14.060493 21.277800 28.520491 0.007525 0.013024 168.958252 1.403380 1.039094 0.467331 17.122259 1.182626 -1.126160 13.579906 -7.160027 -0.251906 -37.004669 -0.001097 -9.330984 -34.826130 3.803445 -34.910755 -78.149506 22.167408 28.918690 -33.631962 0.020106 25.874546 -26.171055 -16.015638 1.784717 -23.062496 18.860676 -53.670559 6.031563 39.303452 18.194336 94.461357 -38.986404 25.298153 3.200494 3.211265 -22.257475 -20.179182 8.030071 -3.937778 112.279320 6.763662 1.830013 60.393066 4.198781 5.899989 -22.204567 -4.819590 -1.303317 111.629204 -6.562267 -0.960115 59.708797 -8.759099 -4.566447 
-14.051481 21.219727 28.739765 0.007525 0.013024 168.958237 1.399692 1.048437 0.463686 17.360216 1.124217 -1.108716 14.035796 -8.055554 -0.315656 -37.004684 -0.001236 -10.500998 -34.137783 5.140414 -34.910976 -78.921196 22.622532 28.725132 -35.371014 -0.349347 25.882158 -26.602264 -15.266975 1.382998 -21.177547 18.035107 -53.859650 6.634440 39.829315 18.626724 94.325470 -38.550621 25.339499 2.502233 4.225247 -21.685667 -20.863405 8.121061 -4.109042 112.842567 6.805087 1.892345 60.393066 4.198781 5.899989 -22.882532 -4.696200 -1.382738 112.209549 -6.597746 -1.024761 59.708805 -8.759098 -4.566446 
-14.042471 21.161655 28.959038 0.007525 0.013024 168.958237 1.396005 1.057780 0.460040 17.598177 1.065731 -1.091515 14.493764 -8.950549 -0.386766 -37.004684 -0.001375 -11.671013 -33.447777 6.477281 -34.927349 -79.697166 23.075201 28.524279 -37.110134 -0.718861 25.878559 -27.037395 -14.521259 0.976862 -19.304098 17.204100 -54.019341 7.247168 40.351624 19.069695 94.190048 -38.114929 25.381920 1.813140 5.246065 -21.125477 -21.548059 8.210020 -4.281431 113.405899 6.845901 1.955091 60.393066 4.198781 5.899989 -23.560555 -4.573757 -1.463605 112.789970 -6.632574 -1.089768 59.708797 -8.759098 -4.566446 
-14.033460 21.103582 29.178312 0.007525 0.013024 168.958252 1.392317 1.067122 0.456393 17.836138 1.007170 -1.074556 14.953970 -9.844813 -0.465306 -37.004681 -0.001514 -12.840780 -32.755615 7.813394 -34.960011 -80.477417 23.525263 28.316099 -38.848614 -1.087918 25.863762 -27.476467 -13.778671 0.566298 -17.442413 16.369087 -54.149872 7.869959 40.870201 19.523447 94.055000 -37.679321 25.425383 1.133072 6.273180 -20.576813 -22.233086 8.296926 -4.454907 113.969315 6.886100 2.018240 60.393066 4.198781 5.899989 -24.238579 -4.452284 -1.545900 113.370445 -6.666745 -1.155129 59.708797 -8.759099 -4.566447 
-14.024448 21.045509 29.397585 0.007525 0.013024 168.958237 1.388628 1.076465 0.452746 18.074093 0.948534 -1.057840 15.416588 -10.738152 -0.551348 -37.004692 -0.001653 -14.010067 -32.060753 9.148102 -35.009094 -81.261955 23.972572 28.100559 -40.585766 -1.456004 25.837795 -27.919504 -13.039395 0.151296 -15.592733 15.531497 -54.251522 8.503031 41.384895 19.988203 93.920319 -37.243832 25.469877 0.461877 7.306067 -20.039616 -22.918427 8.381761 -4.629434 114.532753 6.925676 2.081783 60.393066 4.198781 5.899989 -24.916569 -4.331808 -1.629604 113.950928 -6.700253 -1.220832 59.708797 -8.759098 -4.566446 
-14.015437 20.987438 29.616859 0.007525 0.013024 168.958237 1.384939 1.085807 0.449099 18.312042 0.889826 -1.041366 15.881788 -11.630367 -0.644973 -37.004681 -0.001792 -15.178616 -31.362640 10.480741 -35.074745 -82.050819 24.416979 27.877628 -42.320892 -1.822603 25.800728 -28.366516 -12.303616 -0.268152 -13.755277 14.692746 -54.324669 9.146603 41.895542 20.464178 93.786011 -36.808456 25.515394 -0.200601 8.344193 -19.513792 -23.604015 8.464503 -4.804973 115.096199 6.964624 2.145711 60.393066 4.198781 5.899989 -25.594475 -4.212355 -1.714700 114.531410 -6.733092 -1.286868 59.708797 -8.759097 -4.566445 
